<?xml version="1.0" encoding="UTF-8"?>
<svg id="Layer_2" data-name="Layer 2" xmlns="http://www.w3.org/2000/svg" width="425.2" height="425.2" viewBox="0 0 425.2 425.2">
  <defs>
    <style>
      .cls-1 {
        fill: #2737a1;
        stroke-width: 1px;
        stroke: #ffffff;
      }
    </style>
  </defs>
  <g id="Layer_1-2" data-name="Layer 1">
    <path class="cls-1" d="M199.47,219.13c-2.93,4.49-4.4,9.83-4.4,16.03,0,5.03.97,9.63,2.92,13.78,1.95,4.15,4.49,7.19,7.65,9.13,3.15,1.93,6.39,2.9,9.71,2.9,1.95,0,3.83-.25,5.64-.74,1.82-.49,3.57-1.22,5.25-2.18v-15.25c0-2.65-.2-4.38-.6-5.2-.4-.82-1.03-1.44-1.87-1.87-.84-.43-2.33-.64-4.46-.64v-1.48h20.43v1.48h-.97c-2.02,0-3.41.68-4.16,2.02-.52.96-.78,2.85-.78,5.68v16.15c-2.98,1.61-5.93,2.79-8.83,3.54-2.91.75-6.14,1.13-9.69,1.13-10.2,0-17.94-3.27-23.23-9.81-3.97-4.9-5.95-10.56-5.95-16.97,0-4.64,1.12-9.09,3.35-13.35,2.65-5.06,6.28-8.95,10.9-11.67,3.86-2.26,8.43-3.39,13.7-3.39,1.92,0,3.66.16,5.23.47,1.57.31,3.79,1,6.67,2.06,1.45.54,2.43.82,2.92.82s.91-.23,1.26-.68c.35-.45.57-1.34.64-2.67h1.44l1.36,16.66h-1.36c-1.38-4.15-3.15-7.28-5.33-9.38-3.14-3.04-7.18-4.55-12.1-4.55-6.72,0-11.83,2.66-15.33,7.98ZM324.19,218.29h-6.97l-43.73,43.7,1.78,5.31,48.92-49.01ZM161.83,279.24l50.77,50.85,50.68-50.77-2.26-4.86-48.42,48.39-48.5-48.49-2.27,4.89ZM100.97,218.29l48.85,48.93,1.79-5.34-43.59-43.58h-7.05ZM160.25,236.14l-17.86-17.85h-27.86l38.71,38.74,7.01-20.89ZM264.87,236.29l7,20.86,38.84-38.85h-27.81l-18.03,18ZM166.15,269.95l46.45,46.48,46.37-46.38-8.85-19.04-37.53,37.46-37.59-37.58-8.86,19.06ZM218.32,107.88l74.6,222.33h-2.33l-77.94-167.73h-.05l-77.94,167.73h-2.33l74.6-222.33v-4.15c-.7-.46-1.34-1-1.91-1.61-1.82,1.77-4.3,2.87-7.04,2.87-5.58,0-10.1-4.52-10.1-10.1s4.52-10.1,10.1-10.1c2.85,0,5.41,1.18,7.25,3.07.07-.07.14-.14.22-.21-1.8-1.82-2.92-4.32-2.92-7.08,0-5.58,4.52-10.1,10.1-10.1s10.1,4.52,10.1,10.1c0,2.78-1.12,5.29-2.93,7.11.05.05.1.09.15.14,1.83-1.87,4.37-3.03,7.19-3.03,5.58,0,10.1,4.52,10.1,10.1s-4.52,10.1-10.1,10.1c-2.72,0-5.17-1.08-6.99-2.82-.54.58-1.16,1.09-1.82,1.53v4.18ZM217.91,95.11c0-2.93-2.38-5.31-5.31-5.31s-5.31,2.38-5.31,5.31,2.38,5.31,5.31,5.31,5.31-2.38,5.31-5.31ZM139.83,212.66c0-2.38-1.93-4.3-4.3-4.3l-64.89,4.24,64.89,4.36c2.38,0,4.3-1.93,4.3-4.3ZM140.93,200.02c.41-2.34-1.15-4.57-3.49-4.98l-64.64-7.09,63.14,15.57c2.34.41,4.57-1.15,4.98-3.49ZM144.2,187.77c.81-2.23-.34-4.7-2.57-5.51l-62.42-18.21,59.48,26.29c2.23.81,4.7-.34,5.52-2.57ZM149.55,176.27c1.19-2.06.48-4.69-1.57-5.88l-58.31-28.77,54.01,36.22c2.06,1.19,4.69.48,5.88-1.57ZM156.82,165.87c1.53-1.82,1.29-4.53-.53-6.06l-52.43-38.46,46.9,45.05c1.82,1.53,4.53,1.29,6.06-.53ZM165.78,156.9c1.82-1.53,2.06-4.24.53-6.06l-44.96-46.98,38.37,52.51c1.53,1.82,4.24,2.06,6.06.53ZM176.16,149.61c2.06-1.19,2.76-3.82,1.58-5.88l-36.12-54.07,28.66,58.38c1.19,2.06,3.82,2.76,5.88,1.58ZM187.65,144.24c2.23-.81,3.38-3.28,2.57-5.52l-26.18-59.52,18.09,62.47c.81,2.23,3.28,3.38,5.51,2.57ZM237.43,144.2c2.23.81,4.7-.34,5.51-2.57l18.21-62.42-26.29,59.48c-.81,2.23.34,4.7,2.57,5.51ZM248.93,149.55c2.06,1.19,4.69.48,5.88-1.58l28.77-58.31-36.22,54.01c-1.19,2.06-.48,4.69,1.58,5.88ZM258.79,150.76c-1.53,1.82-1.29,4.53.53,6.06s4.53,1.29,6.06-.53l38.46-52.43-45.05,46.9ZM268.3,165.78c1.53,1.82,4.24,2.06,6.06.53l46.98-44.96-52.51,38.37c-1.82,1.53-2.06,4.24-.53,6.06ZM275.58,176.16c1.19,2.06,3.82,2.76,5.88,1.58l54.07-36.12-58.38,28.66c-2.06,1.19-2.76,3.82-1.58,5.88ZM280.95,187.65c.81,2.23,3.28,3.38,5.51,2.57l59.52-26.18-62.47,18.09c-2.23.81-3.38,3.28-2.57,5.51ZM284.25,199.9c.41,2.34,2.64,3.9,4.99,3.49l63.16-15.44-64.66,6.97c-2.34.41-3.9,2.64-3.49,4.98ZM285.36,212.54c0,2.38,1.93,4.3,4.3,4.3l64.89-4.24-64.89-4.36c-2.38,0-4.3,1.93-4.3,4.3ZM187.95,352.4l8.34-33.83-4.17-4.18-4.17,38.01ZM140.36,295.43l-19.01,25.91,15.85-16.5,3.16-9.41ZM211.22,333.52l1.37,21.03,1.42-21.07-1.42,1.42-1.38-1.38ZM164.05,345.99l18.3-41.39-4.82-4.83-13.48,46.22ZM143.63,265.79l-39.77,38.06,44.97-32.85-5.2-5.2ZM287.49,259.87l48.04,23.7-42.95-28.81-5.09,5.1ZM228.96,318.51l8.29,33.89-4.1-38.08-4.18,4.19ZM170.4,292.63l-5.09-5.1-23.68,48,28.77-42.9ZM132.67,254.85l-43.01,28.73,48.11-23.62-5.1-5.11ZM299.69,247.65l46.3,13.5-41.48-18.33-4.82,4.83ZM242.91,304.53l18.24,41.46-13.41-46.3-4.83,4.84ZM120.73,242.89l-41.52,18.26,46.35-13.43-4.83-4.84ZM314.25,233.06l38.15,4.18-33.97-8.37-4.18,4.19ZM254.87,292.55l28.71,42.98-23.61-48.09-5.1,5.11ZM276.49,270.94l44.85,32.9-39.66-38.1-5.19,5.2ZM106.8,228.94l-34,8.31,38.19-4.12-4.19-4.2ZM190.67,83.95l-2.73-11.15,1.32,12.24c.45-.39.91-.76,1.41-1.09ZM237.25,72.8l-2.69,10.91c.48.3.95.62,1.39.97l1.3-11.88ZM230.36,135.56l3.15-28.71c-1.52.76-3.21,1.23-4.99,1.36l-3.11,12.6,4.95,14.75ZM287.77,304.55l16.07,16.79-19.3-26.42,3.23,9.62ZM196.6,108.17c-1.8-.19-3.49-.75-5.01-1.59l2.95,27.39,4.84-14.42-2.78-11.39ZM363.06,212.6c0,82.96-67.5,150.46-150.46,150.46S62.14,295.56,62.14,212.6,129.63,62.14,212.6,62.14s150.46,67.5,150.46,150.46ZM359.88,212.6c0-81.21-66.07-147.28-147.28-147.28S65.32,131.39,65.32,212.6s66.07,147.28,147.28,147.28,147.28-66.07,147.28-147.28ZM394.7,180.69l18.11-17.09c-.92-3.77-1.95-7.51-3.08-11.2l-17.49,16.5c.94,3.89,1.77,7.82,2.45,11.79ZM397.43,212.6c0,1.06-.02,2.11-.04,3.17l21.07-13.39c-.19-3.89-.49-7.75-.9-11.58l-20.34,12.93c.14,2.95.21,5.9.21,8.87ZM396.87,198.17l19.69-15.32c-.56-3.85-1.22-7.67-1.98-11.45l-19.01,14.8c.56,3.96,1,7.95,1.31,11.97ZM390.87,163.5l16.37-18.7c-1.28-3.66-2.66-7.28-4.14-10.84l-15.8,18.05c1.31,3.79,2.5,7.62,3.57,11.49ZM385.4,146.76l14.5-20.14c-1.62-3.52-3.34-6.98-5.15-10.39l-13.99,19.44c1.67,3.65,3.22,7.34,4.65,11.09ZM138.61,43.12l-20.79-13.51c-3.44,1.79-6.81,3.67-10.13,5.64l20.08,13.05c3.56-1.84,7.18-3.57,10.85-5.18ZM378.36,130.64l12.5-21.41c-1.95-3.35-3.99-6.63-6.12-9.85l-12.08,20.67c2.01,3.47,3.91,7,5.69,10.59ZM107.93,60.21l-22.98-9.33c-3.04,2.4-6,4.89-8.89,7.46l22.2,9.02c3.15-2.49,6.38-4.87,9.67-7.14ZM122.86,50.93l-21.97-11.47c-3.25,2.1-6.43,4.3-9.55,6.58l21.23,11.08c3.37-2.18,6.81-4.24,10.3-6.19ZM172.04,32.21l-17.92-17.26c-3.72,1.1-7.4,2.31-11.03,3.61l17.3,16.66c3.85-1.13,7.73-2.14,11.65-3.01ZM189.41,29.2l-16.23-18.92c-3.82.74-7.6,1.58-11.34,2.53l15.67,18.27c3.93-.75,7.9-1.38,11.89-1.88ZM69.27,95.87l-24.72-2.49c-2.24,3.15-4.39,6.38-6.45,9.66l23.87,2.4c2.33-3.26,4.76-6.45,7.31-9.57ZM42.1,141l-24.42,4.58c-1.26,3.65-2.42,7.35-3.48,11.08l23.61-4.43c1.31-3.79,2.73-7.54,4.28-11.24ZM49.69,125.12l-24.73,2.23c-1.6,3.52-3.11,7.09-4.52,10.7l23.9-2.16c1.66-3.65,3.44-7.24,5.35-10.78ZM81.04,82.78l-24.38-4.83c-2.53,2.93-4.97,5.93-7.34,9l23.53,4.66c2.62-3.02,5.35-5.96,8.19-8.83ZM58.77,110.03l-24.83-.13c-1.93,3.35-3.76,6.76-5.51,10.23l23.99.12c2.01-3.47,4.12-6.88,6.36-10.22ZM206.97,27.86l-14.37-20.4c-3.87.37-7.72.85-11.53,1.44l13.88,19.71c3.98-.37,7.99-.62,12.02-.74ZM155.06,36.86l-19.44-15.45c-3.6,1.45-7.14,3-10.63,4.65l18.77,14.91c3.72-1.49,7.49-2.87,11.31-4.11ZM323.68,39.04c-3.25-2.09-6.58-4.08-9.95-5.99l-1.26,23.95c3.37,2.17,6.67,4.45,9.91,6.84l1.31-24.8ZM212.6,27.77c4.01,0,7.99.14,11.95.39l-12.36-21.67c-3.89,0-7.76.13-11.6.35l11.94,20.92s.05,0,.08,0ZM348.53,87.37l5.98-24.11c-2.8-2.67-5.69-5.25-8.64-7.75l-5.77,23.28c1.08,1.03,2.15,2.07,3.2,3.13,1.79,1.79,3.53,3.62,5.23,5.46ZM369.8,115.28l10.41-22.5c-2.26-3.15-4.6-6.22-7.03-9.23l-10.06,21.73c2.34,3.27,4.56,6.6,6.67,9.99ZM359.83,100.82l8.24-23.41c-2.54-2.92-5.17-5.76-7.87-8.53l-7.96,22.61c2.64,3.04,5.17,6.15,7.59,9.32ZM339.67,50.42c-3.04-2.39-6.16-4.69-9.34-6.9l-3.54,23.73c3.14,2.48,6.21,5.07,9.21,7.76l3.66-24.58ZM242.01,30.09l-10.23-22.71c-3.83-.36-7.69-.6-11.58-.75l9.89,21.95c4,.37,7.98.88,11.93,1.51ZM307.73,54.05l-1.05-24.81c-3.44-1.77-6.93-3.44-10.48-5.02l1.02,23.97c3.56,1.84,7.07,3.79,10.51,5.86ZM259.21,33.67l-8.02-23.55c-3.79-.72-7.61-1.34-11.46-1.85l7.75,22.77c3.94.75,7.86,1.63,11.73,2.63ZM292.23,45.7l-3.41-24.6c-3.59-1.43-7.22-2.77-10.91-4l3.3,23.78c3.72,1.49,7.4,3.09,11.02,4.82ZM276,38.89l-5.74-24.18c-3.71-1.08-7.45-2.07-11.24-2.95l5.55,23.39c3.85,1.12,7.66,2.37,11.43,3.74ZM93.96,70.86l-23.79-7.12c-2.8,2.68-5.51,5.44-8.15,8.26l22.97,6.87c2.91-2.78,5.91-5.45,8.97-8.02ZM331.23,354.33l23.79,7.12c2.8-2.68,5.51-5.44,8.15-8.26l-22.97-6.87c-2.91,2.78-5.91,5.45-8.97,8.02ZM28.92,191.89l-22.21,11.31c-.14,3.12-.22,6.25-.22,9.4,0,.74.02,1.47.03,2.21l21.46-10.93c.19-4.02.51-8.02.95-11.99ZM36.08,157.53l-23.89,6.88c-.9,3.75-1.71,7.54-2.4,11.36l23.11-6.66c.94-3.9,2-7.77,3.18-11.59ZM393.52,250.65l23.16-9.13c.54-3.81.97-7.66,1.3-11.54l-22.39,8.83c-.56,3.98-1.25,7.93-2.07,11.84ZM31.68,174.54l-23.16,9.13c-.54,3.81-.97,7.66-1.3,11.54l22.39-8.83c.56-3.98,1.25-7.93,2.07-11.84ZM183.19,395.1l10.23,22.71c3.83.36,7.69.6,11.58.75l-9.89-21.95c-4-.37-7.98-.88-11.93-1.51ZM165.98,391.52l8.02,23.55c3.79.72,7.61,1.34,11.46,1.85l-7.75-22.78c-3.95-.75-7.86-1.63-11.73-2.63ZM212.6,397.43c-4.01,0-7.99-.14-11.95-.39l12.36,21.67c3.89,0,7.76-.13,11.6-.35l-11.94-20.93s-.05,0-.08,0ZM218.23,397.34l14.37,20.4c3.87-.38,7.72-.85,11.53-1.44l-13.88-19.71c-3.98.37-7.99.62-12.02.74ZM117.46,371.15l1.06,24.81c3.44,1.77,6.93,3.44,10.48,5.02l-1.02-23.97c-3.56-1.84-7.07-3.79-10.51-5.86ZM132.97,379.5l3.41,24.6c3.59,1.43,7.22,2.77,10.91,4l-3.3-23.78c-3.72-1.49-7.4-3.09-11.02-4.82ZM149.19,386.31l5.74,24.18c3.71,1.08,7.45,2.07,11.24,2.95l-5.55-23.39c-3.85-1.12-7.66-2.37-11.43-3.74ZM302.34,374.26l21.97,11.47c3.25-2.1,6.43-4.3,9.55-6.58l-21.23-11.08c-3.37,2.18-6.81,4.24-10.3,6.19ZM286.59,382.07l20.79,13.51c3.44-1.79,6.81-3.67,10.13-5.64l-20.08-13.05c-3.56,1.84-7.18,3.57-10.85,5.18ZM235.79,396l16.23,18.92c3.82-.74,7.6-1.58,11.34-2.53l-15.67-18.27c-3.93.75-7.9,1.38-11.89,1.88ZM270.14,388.34l19.44,15.45c3.59-1.45,7.14-3,10.63-4.65l-18.77-14.91c-3.72,1.49-7.49,2.87-11.31,4.11ZM253.15,392.99l17.92,17.26c3.72-1.1,7.4-2.31,11.03-3.61l-17.3-16.66c-3.85,1.13-7.73,2.14-11.65,3.01ZM55.39,309.92l-10.41,22.5c2.25,3.15,4.6,6.22,7.03,9.23l10.06-21.73c-2.34-3.27-4.56-6.6-6.67-9.99ZM39.79,278.44l-14.5,20.14c1.62,3.52,3.34,6.98,5.15,10.39l14-19.44c-1.67-3.65-3.23-7.34-4.65-11.09ZM30.49,244.51l-18.11,17.09c.92,3.77,1.95,7.51,3.08,11.2l17.48-16.5c-.94-3.89-1.76-7.82-2.45-11.79ZM34.33,261.7l-16.37,18.7c1.28,3.66,2.66,7.28,4.14,10.84l15.8-18.05c-1.31-3.79-2.51-7.62-3.57-11.49ZM28.32,227.02l-19.69,15.32c.56,3.85,1.22,7.67,1.98,11.45l19.01-14.8c-.56-3.96-1-7.95-1.31-11.97ZM101.52,386.15c3.25,2.09,6.58,4.08,9.95,5.99l1.26-23.95c-3.37-2.17-6.67-4.45-9.91-6.84l-1.31,24.81ZM27.77,212.6c0-1.06.02-2.11.04-3.17l-21.07,13.39c.19,3.89.49,7.75.9,11.58l20.34-12.93c-.14-2.95-.21-5.9-.21-8.87ZM76.67,337.83l-5.98,24.11c2.8,2.67,5.69,5.25,8.64,7.75l5.77-23.28c-1.08-1.03-2.15-2.07-3.2-3.13-1.79-1.79-3.53-3.62-5.23-5.46ZM85.53,374.78c3.04,2.39,6.16,4.69,9.34,6.9l3.54-23.73c-3.14-2.48-6.21-5.07-9.21-7.76l-3.66,24.58ZM65.37,324.38l-8.24,23.41c2.54,2.92,5.17,5.76,7.87,8.53l7.96-22.61c-2.64-3.04-5.17-6.15-7.59-9.32ZM46.84,294.56l-12.5,21.4c1.95,3.35,3.99,6.63,6.12,9.85l12.08-20.67c-2.01-3.47-3.91-7-5.69-10.59ZM317.26,364.99l22.98,9.33c3.04-2.4,6-4.89,8.89-7.46l-22.2-9.02c-3.15,2.49-6.38,4.87-9.67,7.14ZM418.69,210.39l-21.46,10.93c-.19,4.02-.51,8.02-.95,11.99l22.21-11.31c.14-3.12.22-6.25.22-9.4,0-.74-.02-1.47-.03-2.21ZM389.12,267.67l23.89-6.88c.9-3.75,1.71-7.54,2.4-11.36l-23.11,6.66c-.94,3.9-2,7.77-3.18,11.59ZM383.1,284.2l24.42-4.58c1.26-3.65,2.42-7.35,3.48-11.09l-23.61,4.43c-1.31,3.79-2.73,7.54-4.28,11.24ZM375.51,300.08l24.73-2.23c1.6-3.52,3.11-7.09,4.52-10.7l-23.9,2.16c-1.66,3.65-3.44,7.24-5.35,10.78ZM366.42,315.17l24.83.13c1.93-3.35,3.76-6.76,5.51-10.23l-23.99-.12c-2.01,3.47-4.12,6.88-6.36,10.22ZM355.93,329.32l24.72,2.49c2.24-3.15,4.39-6.38,6.45-9.66l-23.87-2.4c-2.33,3.26-4.76,6.45-7.31,9.57ZM344.15,342.41l24.38,4.83c2.53-2.93,4.97-5.93,7.34-9l-23.53-4.66c-2.62,3.02-5.35,5.96-8.19,8.83ZM425.2,212.6c0,56.79-22.11,110.17-62.27,150.33-40.16,40.16-93.54,62.27-150.33,62.27s-110.18-22.11-150.33-62.27C22.11,322.77,0,269.39,0,212.6S22.11,102.42,62.27,62.27C102.42,22.11,155.81,0,212.6,0s110.17,22.11,150.33,62.27c40.16,40.15,62.27,93.54,62.27,150.33ZM422.02,212.6C422.02,97.13,328.07,3.18,212.6,3.18S3.18,97.13,3.18,212.6s93.94,209.42,209.42,209.42,209.42-93.94,209.42-209.42ZM394.13,212.6c0,100.1-81.43,181.53-181.53,181.53S31.07,312.69,31.07,212.6,112.5,31.07,212.6,31.07s181.53,81.43,181.53,181.53ZM390.95,212.6c0-98.34-80.01-178.35-178.35-178.35S34.25,114.26,34.25,212.6s80.01,178.35,178.35,178.35,178.35-80.01,178.35-178.35ZM47.48,253.04l-1.21-4.95-3.52.86,2.21,9.09,17.61-4.29-1.01-4.13-14.09,3.43ZM40.88,240.98c-.6-3.67.98-5.97,4.41-6.53l7.27-1.2c4.03-.66,6.36.4,7.06,4.64.7,4.25-1.16,6.07-5.19,6.73l-7.27,1.2c-3.43.57-5.68-1.17-6.28-4.84ZM44.1,240.48c.22,1.34,1.56,1.29,2.66,1.11l7.34-1.21c1.03-.17,2.52-.59,2.3-1.95-.22-1.36-1.77-1.2-2.79-1.03l-7.34,1.21c-1.1.18-2.39.49-2.17,1.88ZM54.98,232l3.61-.29c-.46-5.8-4.27-5.6-9.16-5.21l-6.19.49-.18-2.26,14.45-1.15-.34-4.24-18.06,1.43.82,10.38,9.8-.78c3.47-.28,5.08-.4,5.24,1.62ZM57.22,207.22l-3.62-.06-.09,5.78-3.91-.06.09-5.32-3.62-.06-.09,5.32-3.33-.05.09-5.49-3.62-.06-.16,9.74,18.12.3.16-10.03ZM57.51,201.02l-14.18-1.04v-.05s14.44-1.48,14.44-1.48l.32-3.15-13.84-4.41v-.05s14.1,1.86,14.1,1.86l.41-4.04-18.03-1.82-.6,5.92,10.43,3.33v.05s-10.88,1.11-10.88,1.11l-.6,5.96,18.03,1.82.41-4.02ZM59.04,187.34l-16.95-7.54,1.04-5.02,18.54-.19-.87,4.21-3.58-.12-.67,3.27,3.35,1.21-.86,4.19ZM54.02,178.43l-8.19-.48v.05s7.69,2.85,7.69,2.85l.5-2.41ZM60.37,167.26l3.43,1.18c1.9-5.51-1.68-6.84-6.32-8.44l-5.87-2.02.74-2.15,13.71,4.73,1.39-4.02-17.13-5.91-3.39,9.85,9.3,3.21c3.29,1.13,4.82,1.66,4.16,3.58ZM53.59,141.8c1.51-3.4,4.1-4.44,7.28-3.03l6.73,3c3.73,1.66,5.09,3.83,3.34,7.76-1.75,3.93-4.3,4.43-8.03,2.77l-6.73-3c-3.18-1.42-4.1-4.1-2.58-7.5ZM58.17,145.54l6.8,3.03c.95.42,2.43.9,2.99-.36.56-1.26-.81-1.98-1.76-2.4l-6.8-3.03c-1.01-.45-2.27-.91-2.84.38-.55,1.24.59,1.93,1.61,2.38ZM73.04,143.31l2.26-3.89-4.28-5.19,2.06.11,3.87,2.24,2.14-3.68-3.87-2.24-1.11-1.74,6.63,1.14,2.26-3.89-10.82-1.53-4.98-7.36-2.18,3.76,4.69,6.36-.02.04-6.27-3.64-2.14,3.68,6.27,3.64-.02.04-7.85-.92-2.18,3.76,8.86.67,6.69,8.63ZM83.21,126.14l-12.29-13.9,3.03-4.13,16.95,7.53-2.54,3.47-3.2-1.6-1.97,2.69,2.55,2.49-2.53,3.45ZM82.34,115.95l-7.25-3.84-.03.04,5.83,5.79,1.46-1.99ZM98.69,106.79l-5.47-5.18,2.03-2.14,5.47,5.18,2.92-3.09-13.15-12.46-2.93,3.09,5.05,4.79-2.03,2.14-5.05-4.79-2.92,3.09,13.15,12.46,2.93-3.09ZM104.51,100.67l-9.08-16.18,3.83-3.4,14.98,10.93-3.21,2.86-2.8-2.24-2.49,2.22,1.96,2.98-3.2,2.84ZM103.97,92.17l1.84-1.64-6.28-5.28-.04.03,4.47,6.89ZM117.15,83.05c2.09,3.05,4.52,3.91,7.75,1.7,3.59-2.46,3.84-5.26,2.08-7.83l-1.26-1.84-3.51,2.4.93,1.36c.63.92,1.37,2.22.18,3.04-.92.63-1.58.35-2.15-.49l-5.06-7.4c-.67-.98-.82-1.75.29-2.48.66-.45,1.57-.11,2.44,1.17l.66.96,3.51-2.4-.86-1.26c-2.09-3.05-4.76-3.1-7.75-1.05-3.21,2.2-3.67,4.74-1.45,7.99l4.2,6.14ZM128.56,77.84l1.79,3.15c5.07-2.88,3.26-6.24.84-10.51l-3.07-5.4,1.98-1.12,7.16,12.61,3.7-2.1-8.95-15.76-9.06,5.14,4.86,8.55c1.72,3.03,2.52,4.43.75,5.44ZM137.27,61.6c-1.45-3.16-.36-5.79,3.02-7.34,3.38-1.55,6.01-.63,7.46,2.54l3.07,6.7c1.7,3.71,1.29,6.24-2.62,8.03-3.91,1.79-6.16.48-7.86-3.23l-3.07-6.7ZM141.26,60.09l3.1,6.77c.43.94,1.23,2.28,2.48,1.71,1.25-.57.7-2.02.26-2.97l-3.1-6.77c-.46-1.01-1.1-2.18-2.38-1.6-1.23.56-.83,1.84-.37,2.85ZM155.13,67.99l-6.07-17.08,9.77-3.47,1.22,3.42-5.76,2.05,1.15,3.23c1.5-.53,3.23-1.3,4.86-1.11,2.12.19,3.29,2.11,3.95,3.96.49,1.39.77,2.73.2,4.11-.66,1.67-2.84,2.6-4.39,3.15l-4.92,1.75ZM156.52,59.21l1.52,4.28.59-.21c.64-.23,1.17-.47,1.51-.74.57-.56.28-1.59.05-2.25-.21-.59-.54-1.24-1.12-1.55-.81-.27-1.79.23-2.55.47ZM164.46,50.86c-.87-3.37.65-5.76,4.25-6.7,3.6-.94,6.03.43,6.91,3.8l1.86,7.13c1.03,3.95.18,6.37-3.98,7.45-4.16,1.08-6.15-.6-7.18-4.55l-1.86-7.13ZM168.65,50.07l1.87,7.2c.26,1.01.81,2.46,2.15,2.11,1.33-.35,1.04-1.87.77-2.87l-1.87-7.2c-.28-1.08-.71-2.34-2.07-1.99-1.31.34-1.14,1.67-.86,2.75ZM179.97,51.59l-1.59-9.26,10.26-1.77,2.46,14.29.98-.17,1.06,6.14-3.83.66-.44-2.57-5.57.96.44,2.57-3.83.66-1.06-6.14c2-.34,1.73-1.94,1.14-5.37ZM182.82,45.24l.98,5.69c.32,1.83.63,3.64-.02,5.18l3.12-.54-1.84-10.71-2.24.39ZM197.97,57.81l-.63-7.51,2.94-.25.63,7.51,4.24-.35-1.51-18.06-4.24.35.58,6.94-2.94.25-.58-6.94-4.24.35,1.51,18.06,4.24-.35ZM215,47.02l.05.05-.55,10.09,4.08.07.3-18.12-4.37-.07-3.5,10.07h-.07s.58-10.12.58-10.12l-4.08-.07-.3,18.12,4.35.07,3.52-10.09ZM231.77,58.74c3.5.43,5.66-1.25,6.09-4.7.27-2.18-.16-3.45-1.03-4.49-.87-1.03-2.16-1.83-3.62-3.03-.77-.68-1.25-1.3-1-2.36.19-.78.76-1.2,1.61-1.02,1.38.27,1.15,1.7,1.07,2.76l3.89.48c.61-3.36-.96-6.04-4.62-6.49-3.26-.4-5.51,1.07-5.93,4.45-.2,1.58.12,2.74.78,3.75.68,1.01,1.7,1.84,2.9,2.75,1.02.81,2.2,1.54,2.01,3.05-.11.91-.65,1.75-1.64,1.62-1.34-.17-1.57-1.12-1.44-2.15l.16-1.27-3.91-.48-.24,1.92c-.29,2.37,1.07,4.73,4.93,5.21ZM248.6,50.9l.04.06-2.45,9.81,4,.84,3.71-17.74-4.28-.9-5.34,9.23-.07-.02,2.48-9.83-4-.84-3.71,17.74,4.26.89,5.37-9.25ZM255.66,54.05l2.72-9,9.97,3.01-4.2,13.88.95.29-1.8,5.97-3.72-1.13.75-2.5-5.41-1.64-.76,2.5-3.72-1.13,1.8-5.97c1.94.59,2.41-.96,3.42-4.29ZM257.06,59.8l3.03.92,3.15-10.41-2.18-.66-1.67,5.53c-.54,1.78-1.07,3.54-2.33,4.62ZM264.31,65.8l10.42-15.36,4.76,1.9-3.08,18.29-3.99-1.6.75-3.5-3.1-1.24-1.78,3.09-3.97-1.59ZM271.68,61.51l2.29.92,1.92-7.98-.04-.02-4.16,7.08ZM277.76,71.3l8.18-16.18,4.51,2.28c1.47.74,3.52,1.94,3.96,3.68.38,1.44-.05,2.73-.72,4.05-.88,1.75-2.28,3.5-4.41,3.43-1.64-.02-3.08-.99-4.53-1.64l-3.18,6.3-3.8-1.92ZM286.21,64.01c.72.34,1.5.84,2.34.67.61-.24,1.02-.84,1.3-1.4.32-.63.73-1.61.24-2.24-.3-.31-.82-.58-1.42-.88l-.41-.21-2.05,4.06ZM293.19,79.62l8.2-6.86.02.07-5.65,8.38,3.47,2.15,9.54-15.41-3.72-2.3-8.16,6.85-.06-.04,5.68-8.39-3.47-2.15-9.54,15.41,3.7,2.29ZM310.19,92.14c2.83,2.3,5.58,2.32,7.94-.59,1.25-1.54,2-3.54.55-5.43l.03-.04c2.22.49,3.43-.01,4.67-1.53,2.08-2.57,1.25-5.15-1.26-7.19-2.48-2.01-5.36-2.14-7.19-.08l-.84,1,3.25,2.63c.58-.71,1.56-1.97,2.69-1.05.92.75.64,1.55-.03,2.37-.41.51-1.19,1.12-1.9,1.04-.86-.05-1.6-.71-2.28-1.26l-2.06,2.53c.69.56,1.55,1.16,1.81,1.91.33.89-.15,1.72-.68,2.37-.67.83-1.56,1.66-2.61.81-1.39-1.13,0-2.49.84-3.52l-3.3-2.68-.85,1.08c-1.92,2.71-1.44,5.46,1.22,7.62ZM315.53,95.91l15.4-10.33,3.7,3.55-9.7,15.8-3.1-2.98,2.01-2.96-2.41-2.31-2.81,2.19-3.09-2.96ZM323.96,94.69l1.78,1.71,4.76-6.68-.04-.03-6.51,5.01ZM332.63,113.7l10.96-9.05.03.04-9.4,11.05,1.95,2.49,13.04-6.38.03.04-11.46,8.4,2.5,3.2,14.28-11.15-3.66-4.68-9.83,4.8-.03-.04,7.08-8.32-3.69-4.72-14.28,11.15,2.48,3.18ZM340.98,124.66l17.46-6.26,2.72,4.34-13.27,12.96-2.28-3.64,2.67-2.38-1.77-2.83-3.26,1.44-2.27-3.62ZM349.46,125.54l1.31,2.09,6.25-5.31-.03-.04-7.53,3.27ZM348.08,135.65l1.97,4.04,6.7-.66-1.24,1.65-4.02,1.96,1.86,3.82,4.02-1.96,2.06.04-4.64,4.87,1.97,4.04,7.3-8.13,8.89-.03-1.9-3.91-7.89.35-.02-.04,6.52-3.18-1.86-3.82-6.52,3.18-.02-.04,5.14-6-1.91-3.91-5.5,6.98-10.9.74ZM358.55,158.91l10.69-.26-.03.06-9.64,3.04,1.38,3.85,17.07-6.1-1.47-4.12-10.66.27-.02-.07,9.67-3.02-1.38-3.85-17.07,6.1,1.46,4.1ZM364.16,177.82l10.63,1.11-.04.06-9.95,1.79.87,3.99,17.7-3.88-.94-4.27-10.6-1.09-.02-.07,9.98-1.77-.87-3.99-17.7,3.88.93,4.25ZM367.05,192.2l.3,4.49,6.45,1.92-1.77,1.06-4.46.3.28,4.24,4.46-.3,1.89.82-6.14,2.76.3,4.48,9.83-4.77,8.24,3.33-.29-4.34-7.44-2.65v-.05s7.23-.48,7.23-.48l-.28-4.24-7.23.48v-.05s7.02-3.62,7.02-3.62l-.29-4.34-7.72,4.39-10.38-3.43ZM367.76,223.52l3.62.13.21-5.77,3.91.15-.2,5.31,3.62.13.2-5.31,3.33.12-.2,5.48,3.62.14.36-9.73-18.11-.67-.37,10.02ZM367.14,229.72l7.49.89-.35,2.93-7.49-.89-.5,4.22,17.99,2.14.5-4.22-6.91-.82.35-2.93,6.91.82.5-4.22-17.99-2.14-.5,4.22ZM365.07,243.13l9.25,5.36-.06.04-9.81-2.44-.83,4,17.74,3.69.89-4.28-9.23-5.33.02-.07,9.83,2.47.83-4-17.74-3.69-.89,4.26ZM140.41,350.83l-7.1,8.33-.04-.02,3.17-10.46-5.27-2.86-8.64,15.93,3.55,1.92,6.43-12.67.04.02-4.21,13.88,2.78,1.51,9.41-11.06.04.02-7.16,12.28,3.57,1.94,8.64-15.93-5.23-2.83ZM155.3,357.65l4.79,1.8-2.69,18.34-4.02-1.51.68-3.51-3.12-1.17-1.72,3.12-4-1.51,10.09-15.56ZM156.5,361.61l-4.01,7.16,2.31.87,1.75-8.01-.05-.02ZM176.39,364.28l-4.81,6.27h-.05s1.76-7.04,1.76-7.04l-4.13-1.03-4.4,17.58,4.13,1.03,1.08-4.34,1.36-1.55.74,6.69,4.36,1.09-1.53-10.82,5.69-6.82-4.22-1.06ZM183.91,384.33l9.94,1.36.49-3.59-5.72-.78.53-3.88,5.27.72.49-3.59-5.27-.72.45-3.3,5.43.74.49-3.59-9.65-1.32-2.46,17.96ZM213.62,383.09l.99.03-.17,6.23-3.89-.11.07-2.61-5.65-.15-.07,2.61-3.89-.11.17-6.23c2.03.05,2.07-1.56,2.17-5.04l.26-9.4,10.41.28-.39,14.49ZM209.67,372.1l-2.27-.06-.16,5.77c-.05,1.86-.1,3.7-1.03,5.07l3.16.09.3-10.87ZM231.9,372.42l.61,7.35c.34,4.07-.9,6.31-5.19,6.67s-5.96-1.64-6.3-5.71l-.61-7.35c-.29-3.47,1.62-5.57,5.33-5.88,3.71-.31,5.87,1.45,6.16,4.92ZM228.31,380.48l-.62-7.42c-.09-1.11-.3-2.42-1.7-2.31-1.35.11-1.41,1.45-1.31,2.56l.62,7.42c.09,1.04.38,2.56,1.76,2.45,1.37-.11,1.34-1.66,1.25-2.7ZM244.75,365.19l1.36,6.82-2.89.58-1.36-6.82-4.17.83,3.55,17.77,4.17-.83-1.47-7.39,2.89-.58,1.47,7.39,4.17-.83-3.55-17.77-4.17.83ZM261.79,360.59l-.07,10.66-.07.02-2.72-9.76-3.89,1.25,5.56,17.24,4.14-1.33.08-10.69.06.03,2.73,9.73,3.89-1.25-5.56-17.24-4.16,1.34ZM279.34,353.59l-3.89,1.72,5.89,13.41c.23.46.08.65-.49.93-.52.26-.89.13-1.17-.49l-.93-2.1-3.12,1.38.42.95c.32.73.63,1.49,1.16,2.16,1.28,1.65,3.29,1.82,5.15,1.01,1.68-.74,2.98-1.74,3.13-3.63.09-1.36-.55-2.61-1.06-3.78l-5.09-11.54ZM292.06,346.78l12.41,13.78-3.73,2.13-2.27-2.76-2.9,1.65,1.31,3.31-3.71,2.12-5.55-17.7,4.45-2.54ZM296.52,357.36l-5.05-6.46-.04.02,2.96,7.66,2.14-1.22Z"/>
  </g>
</svg>